<mxfile host="app.diagrams.net" modified="2023-06-11T22:11:06.372Z" agent="Mozilla/5.0 (Windows NT 10.0; Win64; x64) AppleWebKit/537.36 (KHTML, like Gecko) Chrome/114.0.0.0 Safari/537.36" etag="vV4FH_PMoMHLndynz0oi" version="21.3.2" type="github">
  <diagram name="Page-1" id="Fw9cqJjb__tHlQrYpdmn">
    <mxGraphModel dx="1593" dy="687" grid="1" gridSize="10" guides="1" tooltips="1" connect="1" arrows="1" fold="1" page="1" pageScale="1" pageWidth="850" pageHeight="1100" math="0" shadow="0">
      <root>
        <mxCell id="0" />
        <mxCell id="1" parent="0" />
        <mxCell id="8VgfwEKivi2yDVHk0vp1-1" value="Complex Tour Requests" style="swimlane;html=1;childLayout=stackLayout;startSize=20;rounded=0;shadow=0;comic=0;labelBackgroundColor=none;strokeWidth=1;fontFamily=Verdana;fontSize=12;align=center;" parent="1" vertex="1">
          <mxGeometry x="40" y="60" width="1100" height="1560" as="geometry" />
        </mxCell>
        <mxCell id="8VgfwEKivi2yDVHk0vp1-2" value="Guest" style="swimlane;html=1;startSize=20;" parent="8VgfwEKivi2yDVHk0vp1-1" vertex="1">
          <mxGeometry y="20" width="360" height="1540" as="geometry" />
        </mxCell>
        <mxCell id="8VgfwEKivi2yDVHk0vp1-29" value="" style="ellipse;whiteSpace=wrap;html=1;rounded=0;shadow=0;comic=0;labelBackgroundColor=none;strokeWidth=1;fillColor=#000000;fontFamily=Helvetica;fontSize=12;align=center;shape=startState;strokeColor=#ff0000;" parent="8VgfwEKivi2yDVHk0vp1-2" vertex="1">
          <mxGeometry x="90" y="30" width="40" height="40" as="geometry" />
        </mxCell>
        <mxCell id="8VgfwEKivi2yDVHk0vp1-122" value="PREGLED REQUESTOVA" style="shape=note;whiteSpace=wrap;html=1;rounded=0;shadow=0;comic=0;labelBackgroundColor=none;strokeWidth=1;fontFamily=Verdana;fontSize=12;align=center;size=20;" parent="8VgfwEKivi2yDVHk0vp1-2" vertex="1">
          <mxGeometry x="92.5" y="1330" width="195" height="190" as="geometry" />
        </mxCell>
        <mxCell id="Xuwz4tC_ESnuj5XWv51q-30" style="edgeStyle=orthogonalEdgeStyle;rounded=0;orthogonalLoop=1;jettySize=auto;html=1;exitX=0.5;exitY=1;exitDx=0;exitDy=0;" edge="1" parent="8VgfwEKivi2yDVHk0vp1-2" source="8VgfwEKivi2yDVHk0vp1-188">
          <mxGeometry relative="1" as="geometry">
            <mxPoint x="190.52941176470586" y="1090" as="targetPoint" />
          </mxGeometry>
        </mxCell>
        <mxCell id="8VgfwEKivi2yDVHk0vp1-188" value="Receive Notification" style="shape=dataStorage;whiteSpace=wrap;html=1;fixedSize=1;" parent="8VgfwEKivi2yDVHk0vp1-2" vertex="1">
          <mxGeometry x="110" y="960" width="160" height="50" as="geometry" />
        </mxCell>
        <mxCell id="Xuwz4tC_ESnuj5XWv51q-23" style="edgeStyle=orthogonalEdgeStyle;rounded=0;orthogonalLoop=1;jettySize=auto;html=1;exitX=0.5;exitY=1;exitDx=0;exitDy=0;entryX=0.411;entryY=0.04;entryDx=0;entryDy=0;entryPerimeter=0;" edge="1" parent="8VgfwEKivi2yDVHk0vp1-2" source="Xuwz4tC_ESnuj5XWv51q-1" target="Xuwz4tC_ESnuj5XWv51q-20">
          <mxGeometry relative="1" as="geometry" />
        </mxCell>
        <mxCell id="Xuwz4tC_ESnuj5XWv51q-1" value="Create new Complex Tour Request" style="rounded=1;whiteSpace=wrap;html=1;" vertex="1" parent="8VgfwEKivi2yDVHk0vp1-2">
          <mxGeometry x="50" y="290" width="120" height="50" as="geometry" />
        </mxCell>
        <mxCell id="Xuwz4tC_ESnuj5XWv51q-4" style="edgeStyle=orthogonalEdgeStyle;rounded=0;orthogonalLoop=1;jettySize=auto;html=1;entryX=0;entryY=0.25;entryDx=0;entryDy=0;" edge="1" parent="8VgfwEKivi2yDVHk0vp1-2" source="Xuwz4tC_ESnuj5XWv51q-3" target="Xuwz4tC_ESnuj5XWv51q-20">
          <mxGeometry relative="1" as="geometry">
            <Array as="points">
              <mxPoint x="10" y="590" />
              <mxPoint x="10" y="435" />
            </Array>
          </mxGeometry>
        </mxCell>
        <mxCell id="Xuwz4tC_ESnuj5XWv51q-3" value="is valid" style="rhombus;whiteSpace=wrap;html=1;" vertex="1" parent="8VgfwEKivi2yDVHk0vp1-2">
          <mxGeometry x="82.5" y="550" width="80" height="80" as="geometry" />
        </mxCell>
        <mxCell id="Xuwz4tC_ESnuj5XWv51q-5" value="no" style="text;html=1;align=center;verticalAlign=middle;resizable=0;points=[];autosize=1;strokeColor=none;fillColor=none;" vertex="1" parent="8VgfwEKivi2yDVHk0vp1-2">
          <mxGeometry x="20" y="540" width="40" height="30" as="geometry" />
        </mxCell>
        <mxCell id="Xuwz4tC_ESnuj5XWv51q-13" style="edgeStyle=orthogonalEdgeStyle;rounded=0;orthogonalLoop=1;jettySize=auto;html=1;exitX=0.5;exitY=1;exitDx=0;exitDy=0;entryX=0.5;entryY=0;entryDx=0;entryDy=0;" edge="1" parent="8VgfwEKivi2yDVHk0vp1-2" source="Xuwz4tC_ESnuj5XWv51q-10" target="Xuwz4tC_ESnuj5XWv51q-11">
          <mxGeometry relative="1" as="geometry" />
        </mxCell>
        <mxCell id="Xuwz4tC_ESnuj5XWv51q-10" value="View complex tour requests" style="rounded=1;whiteSpace=wrap;html=1;" vertex="1" parent="8VgfwEKivi2yDVHk0vp1-2">
          <mxGeometry x="30" y="100" width="140" height="50" as="geometry" />
        </mxCell>
        <mxCell id="Xuwz4tC_ESnuj5XWv51q-12" style="edgeStyle=orthogonalEdgeStyle;rounded=0;orthogonalLoop=1;jettySize=auto;html=1;entryX=0.5;entryY=0;entryDx=0;entryDy=0;" edge="1" parent="8VgfwEKivi2yDVHk0vp1-2" source="Xuwz4tC_ESnuj5XWv51q-11" target="Xuwz4tC_ESnuj5XWv51q-1">
          <mxGeometry relative="1" as="geometry" />
        </mxCell>
        <mxCell id="Xuwz4tC_ESnuj5XWv51q-15" style="edgeStyle=orthogonalEdgeStyle;rounded=0;orthogonalLoop=1;jettySize=auto;html=1;exitX=1;exitY=0.5;exitDx=0;exitDy=0;" edge="1" parent="8VgfwEKivi2yDVHk0vp1-2" source="Xuwz4tC_ESnuj5XWv51q-11" target="Xuwz4tC_ESnuj5XWv51q-16">
          <mxGeometry relative="1" as="geometry">
            <mxPoint x="200" y="215.3529411764706" as="targetPoint" />
          </mxGeometry>
        </mxCell>
        <mxCell id="Xuwz4tC_ESnuj5XWv51q-11" value="want new request" style="rhombus;whiteSpace=wrap;html=1;" vertex="1" parent="8VgfwEKivi2yDVHk0vp1-2">
          <mxGeometry x="70" y="180" width="80" height="70" as="geometry" />
        </mxCell>
        <mxCell id="Xuwz4tC_ESnuj5XWv51q-14" value="yes" style="text;html=1;align=center;verticalAlign=middle;resizable=0;points=[];autosize=1;strokeColor=none;fillColor=none;" vertex="1" parent="8VgfwEKivi2yDVHk0vp1-2">
          <mxGeometry x="110" y="250" width="40" height="30" as="geometry" />
        </mxCell>
        <mxCell id="Xuwz4tC_ESnuj5XWv51q-16" value="" style="ellipse;html=1;shape=endState;fillColor=#000000;strokeColor=#ff0000;" vertex="1" parent="8VgfwEKivi2yDVHk0vp1-2">
          <mxGeometry x="185" y="200.3529411764706" width="30" height="30" as="geometry" />
        </mxCell>
        <mxCell id="Xuwz4tC_ESnuj5XWv51q-17" value="start" style="text;html=1;align=center;verticalAlign=middle;resizable=0;points=[];autosize=1;strokeColor=none;fillColor=none;" vertex="1" parent="8VgfwEKivi2yDVHk0vp1-2">
          <mxGeometry x="50" y="35" width="50" height="30" as="geometry" />
        </mxCell>
        <mxCell id="Xuwz4tC_ESnuj5XWv51q-24" style="edgeStyle=orthogonalEdgeStyle;rounded=0;orthogonalLoop=1;jettySize=auto;html=1;exitX=0.5;exitY=1;exitDx=0;exitDy=0;" edge="1" parent="8VgfwEKivi2yDVHk0vp1-2" source="Xuwz4tC_ESnuj5XWv51q-20" target="Xuwz4tC_ESnuj5XWv51q-3">
          <mxGeometry relative="1" as="geometry">
            <Array as="points">
              <mxPoint x="123" y="480" />
            </Array>
          </mxGeometry>
        </mxCell>
        <mxCell id="Xuwz4tC_ESnuj5XWv51q-20" value="Add parts to complex request" style="rounded=1;whiteSpace=wrap;html=1;" vertex="1" parent="8VgfwEKivi2yDVHk0vp1-2">
          <mxGeometry x="60" y="420" width="120" height="60" as="geometry" />
        </mxCell>
        <mxCell id="Xuwz4tC_ESnuj5XWv51q-29" value="no" style="text;html=1;align=center;verticalAlign=middle;resizable=0;points=[];autosize=1;strokeColor=none;fillColor=none;" vertex="1" parent="8VgfwEKivi2yDVHk0vp1-2">
          <mxGeometry x="140" y="190" width="40" height="30" as="geometry" />
        </mxCell>
        <mxCell id="Xuwz4tC_ESnuj5XWv51q-33" style="edgeStyle=orthogonalEdgeStyle;rounded=0;orthogonalLoop=1;jettySize=auto;html=1;exitX=0.5;exitY=1;exitDx=0;exitDy=0;entryX=0.5;entryY=0;entryDx=0;entryDy=0;" edge="1" parent="8VgfwEKivi2yDVHk0vp1-2" source="Xuwz4tC_ESnuj5XWv51q-31" target="Xuwz4tC_ESnuj5XWv51q-32">
          <mxGeometry relative="1" as="geometry" />
        </mxCell>
        <mxCell id="Xuwz4tC_ESnuj5XWv51q-31" value="View accepted parts of Complex Tour Requests and its Departute Time" style="rounded=1;whiteSpace=wrap;html=1;" vertex="1" parent="8VgfwEKivi2yDVHk0vp1-2">
          <mxGeometry x="130" y="1090" width="120" height="60" as="geometry" />
        </mxCell>
        <mxCell id="Xuwz4tC_ESnuj5XWv51q-32" value="" style="ellipse;html=1;shape=endState;fillColor=#000000;strokeColor=#ff0000;" vertex="1" parent="8VgfwEKivi2yDVHk0vp1-2">
          <mxGeometry x="175" y="1220" width="30" height="30" as="geometry" />
        </mxCell>
        <mxCell id="8VgfwEKivi2yDVHk0vp1-11" value="System" style="swimlane;html=1;startSize=20;" parent="8VgfwEKivi2yDVHk0vp1-1" vertex="1">
          <mxGeometry x="360" y="20" width="340" height="1540" as="geometry" />
        </mxCell>
        <mxCell id="8VgfwEKivi2yDVHk0vp1-175" style="edgeStyle=orthogonalEdgeStyle;rounded=0;orthogonalLoop=1;jettySize=auto;html=1;entryX=0.5;entryY=0;entryDx=0;entryDy=0;" parent="8VgfwEKivi2yDVHk0vp1-11" source="8VgfwEKivi2yDVHk0vp1-142" target="8VgfwEKivi2yDVHk0vp1-174" edge="1">
          <mxGeometry relative="1" as="geometry" />
        </mxCell>
        <mxCell id="8VgfwEKivi2yDVHk0vp1-177" value="no" style="edgeLabel;html=1;align=center;verticalAlign=middle;resizable=0;points=[];" parent="8VgfwEKivi2yDVHk0vp1-175" vertex="1" connectable="0">
          <mxGeometry x="0.1088" y="3" relative="1" as="geometry">
            <mxPoint x="-3" y="-5" as="offset" />
          </mxGeometry>
        </mxCell>
        <mxCell id="8VgfwEKivi2yDVHk0vp1-142" value="Already Accepted One Part" style="rhombus;whiteSpace=wrap;html=1;" parent="8VgfwEKivi2yDVHk0vp1-11" vertex="1">
          <mxGeometry x="90" y="430" width="90" height="100" as="geometry" />
        </mxCell>
        <mxCell id="8VgfwEKivi2yDVHk0vp1-159" value="Generate Possible Departure Times" style="rounded=1;whiteSpace=wrap;html=1;" parent="8VgfwEKivi2yDVHk0vp1-11" vertex="1">
          <mxGeometry x="75" y="730" width="120" height="60" as="geometry" />
        </mxCell>
        <mxCell id="8VgfwEKivi2yDVHk0vp1-176" style="edgeStyle=orthogonalEdgeStyle;rounded=0;orthogonalLoop=1;jettySize=auto;html=1;" parent="8VgfwEKivi2yDVHk0vp1-11" source="8VgfwEKivi2yDVHk0vp1-174" target="8VgfwEKivi2yDVHk0vp1-159" edge="1">
          <mxGeometry relative="1" as="geometry" />
        </mxCell>
        <mxCell id="8VgfwEKivi2yDVHk0vp1-178" value="no&lt;br&gt;" style="edgeLabel;html=1;align=center;verticalAlign=middle;resizable=0;points=[];" parent="8VgfwEKivi2yDVHk0vp1-176" vertex="1" connectable="0">
          <mxGeometry x="-0.0632" y="2" relative="1" as="geometry">
            <mxPoint as="offset" />
          </mxGeometry>
        </mxCell>
        <mxCell id="8VgfwEKivi2yDVHk0vp1-174" value="Is Busy" style="rhombus;whiteSpace=wrap;html=1;" parent="8VgfwEKivi2yDVHk0vp1-11" vertex="1">
          <mxGeometry x="90" y="570" width="90" height="80" as="geometry" />
        </mxCell>
        <mxCell id="8VgfwEKivi2yDVHk0vp1-192" style="edgeStyle=orthogonalEdgeStyle;rounded=0;orthogonalLoop=1;jettySize=auto;html=1;" parent="8VgfwEKivi2yDVHk0vp1-11" source="8VgfwEKivi2yDVHk0vp1-186" target="8VgfwEKivi2yDVHk0vp1-187" edge="1">
          <mxGeometry relative="1" as="geometry" />
        </mxCell>
        <mxCell id="8VgfwEKivi2yDVHk0vp1-186" value="Create Tour From Tour Request" style="rounded=1;whiteSpace=wrap;html=1;" parent="8VgfwEKivi2yDVHk0vp1-11" vertex="1">
          <mxGeometry x="75" y="850" width="120" height="60" as="geometry" />
        </mxCell>
        <mxCell id="8VgfwEKivi2yDVHk0vp1-187" value="Send Notification" style="shape=step;perimeter=stepPerimeter;whiteSpace=wrap;html=1;fixedSize=1;flipH=1;" parent="8VgfwEKivi2yDVHk0vp1-11" vertex="1">
          <mxGeometry x="65" y="960" width="140" height="50" as="geometry" />
        </mxCell>
        <mxCell id="Xuwz4tC_ESnuj5XWv51q-25" style="edgeStyle=orthogonalEdgeStyle;rounded=0;orthogonalLoop=1;jettySize=auto;html=1;exitX=0.5;exitY=1;exitDx=0;exitDy=0;entryX=0.416;entryY=0.011;entryDx=0;entryDy=0;entryPerimeter=0;" edge="1" parent="8VgfwEKivi2yDVHk0vp1-11" source="Xuwz4tC_ESnuj5XWv51q-8" target="Xuwz4tC_ESnuj5XWv51q-26">
          <mxGeometry relative="1" as="geometry">
            <mxPoint x="99.94117647058829" y="140" as="targetPoint" />
          </mxGeometry>
        </mxCell>
        <mxCell id="Xuwz4tC_ESnuj5XWv51q-8" value="Set status as PENDING" style="rounded=1;whiteSpace=wrap;html=1;" vertex="1" parent="8VgfwEKivi2yDVHk0vp1-11">
          <mxGeometry x="40" y="140" width="120" height="60" as="geometry" />
        </mxCell>
        <mxCell id="Xuwz4tC_ESnuj5XWv51q-26" value="Save Complex Tour Request" style="rounded=1;whiteSpace=wrap;html=1;" vertex="1" parent="8VgfwEKivi2yDVHk0vp1-11">
          <mxGeometry x="50" y="240" width="120" height="60" as="geometry" />
        </mxCell>
        <mxCell id="Xuwz4tC_ESnuj5XWv51q-27" value="UpdateStatusForInvalid" style="rounded=1;whiteSpace=wrap;html=1;" vertex="1" parent="8VgfwEKivi2yDVHk0vp1-11">
          <mxGeometry x="30" y="60" width="140" height="50" as="geometry" />
        </mxCell>
        <mxCell id="8VgfwEKivi2yDVHk0vp1-27" value="Guide" style="swimlane;html=1;startSize=20;" parent="8VgfwEKivi2yDVHk0vp1-1" vertex="1">
          <mxGeometry x="700" y="20" width="400" height="1540" as="geometry" />
        </mxCell>
        <mxCell id="8VgfwEKivi2yDVHk0vp1-115" value="" style="ellipse;whiteSpace=wrap;html=1;rounded=0;shadow=0;comic=0;labelBackgroundColor=none;strokeWidth=1;fillColor=#000000;fontFamily=Helvetica;fontSize=12;align=center;shape=startState;strokeColor=#ff0000;" parent="8VgfwEKivi2yDVHk0vp1-27" vertex="1">
          <mxGeometry x="160" y="40" width="40" height="40" as="geometry" />
        </mxCell>
        <mxCell id="8VgfwEKivi2yDVHk0vp1-140" value="View Complex Tour Requests" style="rounded=1;whiteSpace=wrap;html=1;" parent="8VgfwEKivi2yDVHk0vp1-27" vertex="1">
          <mxGeometry x="120" y="210" width="120" height="60" as="geometry" />
        </mxCell>
        <mxCell id="8VgfwEKivi2yDVHk0vp1-141" value="Select Part of Complex Tour Request" style="rounded=1;whiteSpace=wrap;html=1;" parent="8VgfwEKivi2yDVHk0vp1-27" vertex="1">
          <mxGeometry x="120" y="320" width="120" height="60" as="geometry" />
        </mxCell>
        <mxCell id="8VgfwEKivi2yDVHk0vp1-144" style="edgeStyle=orthogonalEdgeStyle;rounded=0;html=1;labelBackgroundColor=none;startArrow=none;startFill=0;startSize=5;endArrow=classicThin;endFill=1;endSize=5;jettySize=auto;orthogonalLoop=1;strokeWidth=1;fontFamily=Verdana;fontSize=12;exitX=0.5;exitY=1;exitDx=0;exitDy=0;" parent="8VgfwEKivi2yDVHk0vp1-27" source="8VgfwEKivi2yDVHk0vp1-115" target="8VgfwEKivi2yDVHk0vp1-140" edge="1">
          <mxGeometry relative="1" as="geometry">
            <mxPoint x="-530" y="90" as="sourcePoint" />
            <mxPoint x="-530" y="110" as="targetPoint" />
          </mxGeometry>
        </mxCell>
        <mxCell id="8VgfwEKivi2yDVHk0vp1-145" style="edgeStyle=orthogonalEdgeStyle;rounded=0;html=1;labelBackgroundColor=none;startArrow=none;startFill=0;startSize=5;endArrow=classicThin;endFill=1;endSize=5;jettySize=auto;orthogonalLoop=1;strokeWidth=1;fontFamily=Verdana;fontSize=12;exitX=0.5;exitY=1;exitDx=0;exitDy=0;entryX=0.5;entryY=0;entryDx=0;entryDy=0;" parent="8VgfwEKivi2yDVHk0vp1-27" source="8VgfwEKivi2yDVHk0vp1-140" target="8VgfwEKivi2yDVHk0vp1-141" edge="1">
          <mxGeometry relative="1" as="geometry">
            <mxPoint x="190" y="90" as="sourcePoint" />
            <mxPoint x="190" y="280" as="targetPoint" />
          </mxGeometry>
        </mxCell>
        <mxCell id="8VgfwEKivi2yDVHk0vp1-163" value="Select Departure Time" style="rounded=1;whiteSpace=wrap;html=1;" parent="8VgfwEKivi2yDVHk0vp1-27" vertex="1">
          <mxGeometry x="120" y="730" width="120" height="60" as="geometry" />
        </mxCell>
        <mxCell id="8VgfwEKivi2yDVHk0vp1-167" style="edgeStyle=orthogonalEdgeStyle;rounded=0;orthogonalLoop=1;jettySize=auto;html=1;entryX=0;entryY=0.5;entryDx=0;entryDy=0;" parent="8VgfwEKivi2yDVHk0vp1-27" source="8VgfwEKivi2yDVHk0vp1-166" target="8VgfwEKivi2yDVHk0vp1-163" edge="1">
          <mxGeometry relative="1" as="geometry" />
        </mxCell>
        <mxCell id="8VgfwEKivi2yDVHk0vp1-166" value="Departure Times" style="rounded=0;whiteSpace=wrap;html=1;" parent="8VgfwEKivi2yDVHk0vp1-27" vertex="1">
          <mxGeometry x="-40" y="740" width="80" height="40" as="geometry" />
        </mxCell>
        <mxCell id="8VgfwEKivi2yDVHk0vp1-184" value="?????????????????" style="text;html=1;strokeColor=none;fillColor=none;align=center;verticalAlign=middle;whiteSpace=wrap;rounded=0;" parent="8VgfwEKivi2yDVHk0vp1-27" vertex="1">
          <mxGeometry x="170" y="530" width="60" height="30" as="geometry" />
        </mxCell>
        <mxCell id="8VgfwEKivi2yDVHk0vp1-147" style="edgeStyle=orthogonalEdgeStyle;rounded=0;html=1;labelBackgroundColor=none;startArrow=none;startFill=0;startSize=5;endArrow=classicThin;endFill=1;endSize=5;jettySize=auto;orthogonalLoop=1;strokeWidth=1;fontFamily=Verdana;fontSize=12;exitX=0.5;exitY=1;exitDx=0;exitDy=0;" parent="8VgfwEKivi2yDVHk0vp1-1" source="8VgfwEKivi2yDVHk0vp1-141" target="8VgfwEKivi2yDVHk0vp1-142" edge="1">
          <mxGeometry relative="1" as="geometry">
            <mxPoint x="840" y="300" as="sourcePoint" />
            <mxPoint x="840" y="350" as="targetPoint" />
          </mxGeometry>
        </mxCell>
        <mxCell id="8VgfwEKivi2yDVHk0vp1-165" style="edgeStyle=orthogonalEdgeStyle;rounded=0;orthogonalLoop=1;jettySize=auto;html=1;entryX=0;entryY=0.5;entryDx=0;entryDy=0;" parent="8VgfwEKivi2yDVHk0vp1-1" source="8VgfwEKivi2yDVHk0vp1-159" target="8VgfwEKivi2yDVHk0vp1-166" edge="1">
          <mxGeometry relative="1" as="geometry">
            <Array as="points">
              <mxPoint x="640" y="780" />
            </Array>
          </mxGeometry>
        </mxCell>
        <mxCell id="8VgfwEKivi2yDVHk0vp1-180" style="edgeStyle=orthogonalEdgeStyle;rounded=0;orthogonalLoop=1;jettySize=auto;html=1;entryX=1;entryY=0.5;entryDx=0;entryDy=0;" parent="8VgfwEKivi2yDVHk0vp1-1" source="8VgfwEKivi2yDVHk0vp1-142" target="8VgfwEKivi2yDVHk0vp1-141" edge="1">
          <mxGeometry relative="1" as="geometry">
            <mxPoint x="780" y="499.9999999999998" as="targetPoint" />
          </mxGeometry>
        </mxCell>
        <mxCell id="8VgfwEKivi2yDVHk0vp1-182" value="yes" style="edgeLabel;html=1;align=center;verticalAlign=middle;resizable=0;points=[];" parent="8VgfwEKivi2yDVHk0vp1-180" vertex="1" connectable="0">
          <mxGeometry x="-0.2462" y="1" relative="1" as="geometry">
            <mxPoint as="offset" />
          </mxGeometry>
        </mxCell>
        <mxCell id="8VgfwEKivi2yDVHk0vp1-181" style="edgeStyle=orthogonalEdgeStyle;rounded=0;orthogonalLoop=1;jettySize=auto;html=1;entryX=1;entryY=0.5;entryDx=0;entryDy=0;" parent="8VgfwEKivi2yDVHk0vp1-1" source="8VgfwEKivi2yDVHk0vp1-174" target="8VgfwEKivi2yDVHk0vp1-141" edge="1">
          <mxGeometry relative="1" as="geometry">
            <mxPoint x="800" y="629.9999999999998" as="targetPoint" />
            <Array as="points">
              <mxPoint x="1030" y="630" />
              <mxPoint x="1030" y="370" />
            </Array>
          </mxGeometry>
        </mxCell>
        <mxCell id="8VgfwEKivi2yDVHk0vp1-183" value="yes" style="edgeLabel;html=1;align=center;verticalAlign=middle;resizable=0;points=[];" parent="8VgfwEKivi2yDVHk0vp1-181" vertex="1" connectable="0">
          <mxGeometry x="-0.1415" y="-6" relative="1" as="geometry">
            <mxPoint as="offset" />
          </mxGeometry>
        </mxCell>
        <mxCell id="8VgfwEKivi2yDVHk0vp1-189" style="edgeStyle=orthogonalEdgeStyle;rounded=0;orthogonalLoop=1;jettySize=auto;html=1;entryX=0.864;entryY=0.519;entryDx=0;entryDy=0;entryPerimeter=0;" parent="8VgfwEKivi2yDVHk0vp1-1" source="8VgfwEKivi2yDVHk0vp1-187" target="8VgfwEKivi2yDVHk0vp1-188" edge="1">
          <mxGeometry relative="1" as="geometry" />
        </mxCell>
        <mxCell id="8VgfwEKivi2yDVHk0vp1-191" style="edgeStyle=orthogonalEdgeStyle;rounded=0;orthogonalLoop=1;jettySize=auto;html=1;entryX=0.5;entryY=0;entryDx=0;entryDy=0;" parent="8VgfwEKivi2yDVHk0vp1-1" source="8VgfwEKivi2yDVHk0vp1-163" target="8VgfwEKivi2yDVHk0vp1-186" edge="1">
          <mxGeometry relative="1" as="geometry">
            <Array as="points">
              <mxPoint x="880" y="850" />
              <mxPoint x="495" y="850" />
            </Array>
          </mxGeometry>
        </mxCell>
        <mxCell id="Xuwz4tC_ESnuj5XWv51q-6" style="edgeStyle=orthogonalEdgeStyle;rounded=0;orthogonalLoop=1;jettySize=auto;html=1;exitX=1;exitY=0.5;exitDx=0;exitDy=0;entryX=0;entryY=0.5;entryDx=0;entryDy=0;" edge="1" parent="8VgfwEKivi2yDVHk0vp1-1" source="Xuwz4tC_ESnuj5XWv51q-3" target="Xuwz4tC_ESnuj5XWv51q-8">
          <mxGeometry relative="1" as="geometry">
            <mxPoint x="400" y="100" as="targetPoint" />
            <Array as="points">
              <mxPoint x="280" y="610" />
              <mxPoint x="280" y="190" />
            </Array>
          </mxGeometry>
        </mxCell>
        <mxCell id="Xuwz4tC_ESnuj5XWv51q-7" value="yes" style="edgeLabel;html=1;align=center;verticalAlign=middle;resizable=0;points=[];" vertex="1" connectable="0" parent="Xuwz4tC_ESnuj5XWv51q-6">
          <mxGeometry x="-0.7577" relative="1" as="geometry">
            <mxPoint x="-24" y="-20" as="offset" />
          </mxGeometry>
        </mxCell>
        <mxCell id="Xuwz4tC_ESnuj5XWv51q-28" style="edgeStyle=orthogonalEdgeStyle;rounded=0;orthogonalLoop=1;jettySize=auto;html=1;entryX=0.5;entryY=0;entryDx=0;entryDy=0;" edge="1" parent="8VgfwEKivi2yDVHk0vp1-1" target="Xuwz4tC_ESnuj5XWv51q-27">
          <mxGeometry relative="1" as="geometry">
            <mxPoint x="120" y="70" as="sourcePoint" />
            <Array as="points">
              <mxPoint x="255" y="71" />
              <mxPoint x="460" y="71" />
            </Array>
          </mxGeometry>
        </mxCell>
        <mxCell id="8VgfwEKivi2yDVHk0vp1-28" style="edgeStyle=orthogonalEdgeStyle;rounded=0;html=1;labelBackgroundColor=none;startArrow=none;startFill=0;startSize=5;endArrow=classicThin;endFill=1;endSize=5;jettySize=auto;orthogonalLoop=1;strokeWidth=1;fontFamily=Verdana;fontSize=12;exitX=0;exitY=0.5;exitDx=0;exitDy=0;" parent="8VgfwEKivi2yDVHk0vp1-1" source="Xuwz4tC_ESnuj5XWv51q-27" edge="1" target="Xuwz4tC_ESnuj5XWv51q-10">
          <mxGeometry relative="1" as="geometry">
            <mxPoint x="110" y="120" as="targetPoint" />
          </mxGeometry>
        </mxCell>
        <mxCell id="8VgfwEKivi2yDVHk0vp1-63" value="KREIRANJE REQUESTA" style="shape=note;whiteSpace=wrap;html=1;rounded=0;shadow=0;comic=0;labelBackgroundColor=none;strokeWidth=1;fontFamily=Verdana;fontSize=12;align=center;size=20;" parent="1" vertex="1">
          <mxGeometry x="1170" y="80" width="195" height="190" as="geometry" />
        </mxCell>
        <mxCell id="8VgfwEKivi2yDVHk0vp1-114" value="KREIRANJE REQUESTA" style="shape=note;whiteSpace=wrap;html=1;rounded=0;shadow=0;comic=0;labelBackgroundColor=none;strokeWidth=1;fontFamily=Verdana;fontSize=12;align=center;size=20;" parent="1" vertex="1">
          <mxGeometry x="1190" y="300" width="195" height="190" as="geometry" />
        </mxCell>
        <mxCell id="Xuwz4tC_ESnuj5XWv51q-18" value="end" style="text;html=1;align=center;verticalAlign=middle;resizable=0;points=[];autosize=1;strokeColor=none;fillColor=none;" vertex="1" parent="1">
          <mxGeometry x="250" y="278" width="40" height="30" as="geometry" />
        </mxCell>
        <mxCell id="Xuwz4tC_ESnuj5XWv51q-34" value="end" style="text;html=1;align=center;verticalAlign=middle;resizable=0;points=[];autosize=1;strokeColor=none;fillColor=none;" vertex="1" parent="1">
          <mxGeometry x="250" y="1308" width="40" height="30" as="geometry" />
        </mxCell>
      </root>
    </mxGraphModel>
  </diagram>
</mxfile>
